<svg height="480pt" viewBox="0 0 480.11825 480" width="480pt" xmlns="http://www.w3.org/2000/svg" xmlns:xlink="http://www.w3.org/1999/xlink"><linearGradient id="a"><stop offset="0" stop-color="#4761ac"/><stop offset="1" stop-color="#54c2ef"/></linearGradient><linearGradient id="b" gradientUnits="userSpaceOnUse" x1="0" x2="497.032" xlink:href="#a" y1="240.045412" y2="240.045412"/><linearGradient id="c" gradientUnits="userSpaceOnUse" x1="0" x2="497.032" xlink:href="#a" y1="440.037412" y2="440.037412"/><linearGradient id="d" gradientUnits="userSpaceOnUse" x1="0" x2="497.032" xlink:href="#a" y1="408.037412" y2="408.037412"/><linearGradient id="e" gradientUnits="userSpaceOnUse" x1="0" x2="497.032" xlink:href="#a" y1="376.037412" y2="376.037412"/><path d="m471.503906 116.878906c7.382813-11.808594 10.15625-25.917968 7.792969-39.640625-3.15625-19.121093-12.375-36.722656-26.296875-50.207031-24.878906-24.882812-59.679688-33.746094-84.640625-21.539062-4.789063 2.335937-9.15625 5.453124-12.925781 9.21875l-89.328125 89.328124h-124.847657c-2.070312.023438-4.136718.183594-6.1875.476563 0 0-.070312 0-.101562 0h-.144531c-1.390625.1875-2.734375.488281-4.089844.800781-.871094.191406-1.742187.386719-2.589844.617188-1.144531.328125-2.257812.6875-3.359375 1.097656-1.105468.40625-2.25.894531-3.335937 1.398438-.800781.375-1.601563.71875-2.402344 1.144531-1.867187.988281-3.652344 2.132812-5.335937 3.414062l-101.246094 78.5625c-7.636719 5.589844-12.238282 14.410157-12.464844 23.871094v231.816406c0 18.070313 17.945312 32.800781 40 32.800781h400c22.054688 0 40-14.730468 40-32.800781v-310.402343c-.152344-7.5-3.195312-14.648438-8.496094-19.957032zm-104.761718-90.859375c2.523437-2.515625 5.445312-4.597656 8.648437-6.15625 18.90625-9.25 46.167969-1.640625 66.296875 18.484375 11.480469 11.03125 19.109375 25.457032 21.769531 41.152344 1.746094 9.761719-.085937 19.824219-5.152343 28.34375-5.78125-2.492188-12.007813-3.789062-18.304688-3.804688h-8.335938c7.558594-18.886718.792969-40.484374-16.1875-51.679687-16.984374-11.195313-39.5-8.902344-53.875 5.484375l-6.167968 6.160156-40 40h-26.707032zm-134.550782 259.808594c-11.035156 11.863281-27.671875 16.753906-43.371094 12.746094-15.703124-4.003907-27.960937-16.265625-31.964843-31.964844-4.007813-15.699219.882812-32.335937 12.746093-43.371094l103.125-103.199219h26.664063l-91.847656 91.847657c-3.132813 3.121093-3.144531 8.195312-.019531 11.332031 3.125 3.132812 8.199218 3.140625 11.332031.019531l103.160156-103.199219h76zm134.542969-210.511719 6.152344-6.152344c10.625-10.152343 27.355469-10.152343 37.976562 0 9.433594 9.359376 10.527344 24.234376 2.570313 34.875h-75.417969zm-243.199219 50.320313.136719-.085938c1.292969-.976562 2.683594-1.8125 4.152344-2.496093l.175781-.082032v85.066406h-109.375l.304688-.425781c.960937-1.28125 2.082031-2.433593 3.34375-3.425781zm340.464844 321.601562c0 9.128907-10.992188 16.800781-24 16.800781h-400c-13.007812 0-24-7.707031-24-16.800781v-223.199219h120c4.417969 0 8-3.582031 8-8v-96h106.105469l-91.847657 91.847657c-23.542968 23.539062-23.546874 61.707031-.003906 85.25 23.539063 23.542969 61.707032 23.546875 85.25.003906l177.105469-177.101563h19.390625c2.195312.019532 4.382812.269532 6.527344.742188l-171.199219 171.199219c-3.125 3.125-3.121094 8.191406.003906 11.316406s8.191407 3.121094 11.316407-.003906l174.320312-174.320313c1.867188 2.207032 2.933594 4.976563 3.03125 7.863282zm0 0" fill="url(#b)"/><path d="m440 432.039062h-64c-4.417969 0-8 3.578126-8 8 0 4.417969 3.582031 8 8 8h64c4.417969 0 8-3.582031 8-8 0-4.421874-3.582031-8-8-8zm0 0" fill="url(#c)"/><path d="m440 400.039062h-192c-4.417969 0-8 3.578126-8 8 0 4.417969 3.582031 8 8 8h192c4.417969 0 8-3.582031 8-8 0-4.421874-3.582031-8-8-8zm0 0" fill="url(#d)"/><path d="m440 368.039062h-120c-4.417969 0-8 3.578126-8 8 0 4.417969 3.582031 8 8 8h120c4.417969 0 8-3.582031 8-8 0-4.421874-3.582031-8-8-8zm0 0" fill="url(#e)"/><g fill="url(#c)"><path d="m344 432.039062h-256c-4.417969 0-8 3.578126-8 8 0 4.417969 3.582031 8 8 8h256c4.417969 0 8-3.582031 8-8 0-4.421874-3.582031-8-8-8zm0 0"/><path d="m56 432.039062h-16c-4.417969 0-8 3.578126-8 8 0 4.417969 3.582031 8 8 8h16c4.417969 0 8-3.582031 8-8 0-4.421874-3.582031-8-8-8zm0 0"/></g></svg>