<svg id="Icons" height="512" viewBox="0 0 74 74" width="512" xmlns="http://www.w3.org/2000/svg"><path d="m45.87 67.59h-2.96a1 1 0 0 1 0-2h2.96a1 1 0 1 1 0 2z"/><path d="m26 67.59h-21a3 3 0 0 1 -3-3v-43a3 3 0 0 1 3-3h26a1 1 0 0 1 0 2h-26a1 1 0 0 0 -1 1v43a1 1 0 0 0 1 1h21a1 1 0 0 1 0 2z"/><path d="m35.91 67.59h-2.91a1 1 0 0 1 0-2h2.91a1 1 0 0 1 0 2z"/><path d="m69 67.59h-16.13a1 1 0 0 1 0-2h16.13a1 1 0 0 0 1-1v-43a1 1 0 0 0 -1-1h-26a1 1 0 0 1 0-2h26a3 3 0 0 1 3 3v43a3 3 0 0 1 -3 3z"/><path d="m43 26.758h-12a1 1 0 0 1 -1-1v-12.344a7 7 0 0 1 14 0v12.344a1 1 0 0 1 -1 1zm-11-2h10v-11.344a5 5 0 0 0 -10 0z"/><path d="m47.469 26.758h-20.938a1 1 0 0 1 0-2h20.938a1 1 0 0 1 0 2z"/><path d="m37 18a3.583 3.583 0 1 1 3.583-3.583 3.587 3.587 0 0 1 -3.583 3.583zm0-5.166a1.583 1.583 0 1 0 1.583 1.583 1.585 1.585 0 0 0 -1.583-1.581z"/><path d="m29.354 55.211h-18.708a1 1 0 0 1 -1-1v-4.049a5.626 5.626 0 0 1 5.62-5.62h9.468a5.626 5.626 0 0 1 5.62 5.62v4.049a1 1 0 0 1 -1 1zm-17.708-2h16.708v-3.049a3.624 3.624 0 0 0 -3.62-3.62h-9.468a3.624 3.624 0 0 0 -3.62 3.62z"/><path d="m20 42.739a5.452 5.452 0 1 1 5.452-5.451 5.458 5.458 0 0 1 -5.452 5.451zm0-8.9a3.452 3.452 0 1 0 3.452 3.452 3.456 3.456 0 0 0 -3.452-3.455z"/><path d="m64 34.7h-28a1 1 0 0 1 0-2h28a1 1 0 0 1 0 2z"/><path d="m64 42.661h-28a1 1 0 0 1 0-2h28a1 1 0 0 1 0 2z"/><path d="m64 50.623h-28a1 1 0 0 1 0-2h28a1 1 0 0 1 0 2z"/><path d="m64 58.586h-28a1 1 0 0 1 0-2h28a1 1 0 0 1 0 2z"/></svg>